<svg xmlns="http://www.w3.org/2000/svg" width="180" height="22.893" viewBox="0 0 180 22.893"><defs><style>.a{fill:#32325c;}</style></defs><g transform="translate(774.141 1092.604)"><path class="a" d="M-427.164-1059.335h-1.871v1.7h1.871a2.956,2.956,0,0,1,2.952,2.953,2.956,2.956,0,0,1-2.952,2.952H-440.6a2.956,2.956,0,0,1-2.952-2.952,2.956,2.956,0,0,1,2.952-2.953h6.591v1.29l3.7-2.138-3.7-2.138v1.285H-440.6a4.659,4.659,0,0,0-4.653,4.654,4.659,4.659,0,0,0,4.653,4.653h13.441a4.659,4.659,0,0,0,4.654-4.653A4.659,4.659,0,0,0-427.164-1059.335Z" transform="translate(-245.42 -23.867)"/><g transform="translate(-774.141 -1092.604)"><path class="a" d="M-771.379-1076.733h8.319v-2.286h-8.319v-6.763h8.8v-2.318h-11.557v21.4h12.034v-2.318h-9.272Z" transform="translate(774.141 1089.243)"/><rect class="a" width="2.794" height="22.543" transform="translate(15.209 0)"/><path class="a" d="M-678.69-1059.417c0-3.08-1.143-6.286-5.843-6.286a9.539,9.539,0,0,0-5.048,1.365l.635,1.842a7.66,7.66,0,0,1,4-1.143c3.144,0,3.493,2.286,3.493,3.556v.318c-5.937-.032-9.24,2-9.24,5.715a4.378,4.378,0,0,0,4.7,4.414,5.725,5.725,0,0,0,4.7-2.286h.1l.222,1.937h2.54a21.641,21.641,0,0,1-.254-3.683Zm-2.7,4.255a2.918,2.918,0,0,1-.159.889,3.823,3.823,0,0,1-3.715,2.572,2.473,2.473,0,0,1-2.635-2.667c0-2.985,3.461-3.524,6.509-3.461Z" transform="translate(711.87 1072.531)"/><path class="a" d="M-625.105-1058.909c-2-.762-2.921-1.334-2.921-2.6,0-1.143.921-2.1,2.572-2.1a5.982,5.982,0,0,1,3.144.889l.7-2.032a7.673,7.673,0,0,0-3.779-.952c-3.3,0-5.3,2.032-5.3,4.508,0,1.842,1.3,3.366,4.064,4.351,2.064.762,2.857,1.492,2.857,2.826,0,1.27-.952,2.286-2.984,2.286a7.321,7.321,0,0,1-3.683-1.111l-.7,2.127a8.76,8.76,0,0,0,4.318,1.048c3.651,0,5.747-1.905,5.747-4.6C-621.073-1056.56-622.438-1057.893-625.105-1058.909Z" transform="translate(667.429 1072.531)"/><path class="a" d="M-580.36-1081.719l-2.731.73v3.683h-2.381v2.127h2.381v8.383c0,1.81.286,3.175,1.079,4a3.873,3.873,0,0,0,3.017,1.175,6.843,6.843,0,0,0,2.476-.381l-.127-2.1a6.213,6.213,0,0,1-1.619.19c-1.556,0-2.1-1.079-2.1-2.984v-8.287h4v-2.127h-4Z" transform="translate(633.352 1084.481)"/><path class="a" d="M-538.058-1088.225a1.7,1.7,0,0,0-1.746,1.746,1.661,1.661,0,0,0,1.683,1.715,1.65,1.65,0,0,0,1.778-1.715A1.658,1.658,0,0,0-538.058-1088.225Z" transform="translate(599.274 1089.336)"/><rect class="a" width="2.794" height="15.368" transform="translate(59.819 7.176)"/><path class="a" d="M-506.623-1051.8c-3.048,0-5.334-2.191-5.334-5.747,0-3.207,1.905-5.811,5.43-5.811a6.481,6.481,0,0,1,3.239.73l.635-2.159a9.338,9.338,0,0,0-3.874-.794c-5.017,0-8.255,3.429-8.255,8.16,0,4.7,3.016,7.843,7.652,7.843a10.292,10.292,0,0,0,4.413-.889l-.476-2.1A7.933,7.933,0,0,1-506.623-1051.8Z" transform="translate(580.602 1072.438)"/></g><g transform="translate(-660.406 -1092.604)"><path class="a" d="M-323.209-1076.733h8.319v-2.286h-8.319v-6.763h8.8v-2.318h-11.558v21.4h12.034v-2.318h-9.271Z" transform="translate(325.971 1089.243)"/><path class="a" d="M-249.525-1065.7a5.244,5.244,0,0,0-3.4,1.079,6.334,6.334,0,0,0-1.715,2h-.063a4.543,4.543,0,0,0-4.35-3.08,5.3,5.3,0,0,0-4.826,2.826h-.1l-.127-2.477h-2.445c.1,1.27.127,2.572.127,4.159v11.208h2.731v-9.271a3.854,3.854,0,0,1,.222-1.365,3.818,3.818,0,0,1,3.461-2.794c2.127,0,3.207,1.778,3.207,4.223v9.208h2.73v-9.493a4.612,4.612,0,0,1,.222-1.4,3.618,3.618,0,0,1,3.3-2.54c2.254,0,3.334,1.778,3.334,4.731v8.7h2.73v-9.049C-244.477-1064.37-247.493-1065.7-249.525-1065.7Z" transform="translate(281.625 1072.531)"/><path class="a" d="M-155.7-1059.417c0-3.08-1.143-6.286-5.842-6.286a9.539,9.539,0,0,0-5.048,1.365l.635,1.842a7.658,7.658,0,0,1,4-1.143c3.144,0,3.493,2.286,3.493,3.556v.318c-5.937-.032-9.24,2-9.24,5.715a4.378,4.378,0,0,0,4.7,4.414,5.725,5.725,0,0,0,4.7-2.286h.1l.222,1.937h2.54a21.625,21.625,0,0,1-.254-3.683Zm-2.7,4.255a2.921,2.921,0,0,1-.159.889,3.824,3.824,0,0,1-3.715,2.572,2.473,2.473,0,0,1-2.635-2.667c0-2.985,3.461-3.524,6.509-3.461Z" transform="translate(207.867 1072.531)"/><path class="a" d="M-103.524-1088.225a1.7,1.7,0,0,0-1.746,1.746,1.662,1.662,0,0,0,1.683,1.715,1.65,1.65,0,0,0,1.778-1.715A1.658,1.658,0,0,0-103.524-1088.225Z" transform="translate(161.279 1089.336)"/><rect class="a" width="2.794" height="15.368" transform="translate(56.358 7.176)"/><rect class="a" width="2.794" height="22.543" transform="translate(63.47 0)"/></g></g></svg>