<svg xmlns="http://www.w3.org/2000/svg" width="99" height="107" viewBox="0 0 99 107" fill="none"><path d="M17.0816 33.6935C15.5612 40.2699 17.4154 46.429 18.5572 52.9071C19.2316 56.7333 19.9454 60.7824 21.0115 64.4965C21.9132 67.6377 22.3824 71.0031 22.9048 74.2289C23.4059 77.3239 24.4587 80.3761 24.2568 83.5526C24.1767 84.812 24.1777 87.6247 22.8893 88.3701C20.8017 89.5779 18.8779 89.8076 16.5381 89.7027C12.3834 89.5164 9.11255 88.5183 6.13829 85.6458C4.11966 83.6963 4.29564 79.5583 4.4079 77.0544C4.65183 71.6137 6.09106 66.639 7.49106 61.395C8.04765 59.3102 9.26561 57.4308 10.7939 55.8748C11.9443 54.7037 13.6126 54.2727 14.1444 56.3425C14.9352 59.4201 17.701 62.8408 19.5491 65.4068C21.9488 68.7386 24.8368 71.5726 27.5961 74.5465C29.6899 76.8032 31.2807 77.78 30.8444 73.9504C30.6039 71.8392 30.5322 69.3404 29.8926 67.3146C29.2714 65.3471 31.2883 70.2118 31.6337 69.5476C31.8158 69.1974 31.8204 67.9751 32.1996 67.8086C32.6242 67.6221 33.825 70.1204 34.2732 70.3946C34.8869 70.77 35.2871 68.2717 35.3845 67.9069C35.6649 66.8565 36.9169 67.8892 37.6725 68.091C38.3669 68.2764 38.4436 67.7316 38.3647 67.097C38.309 66.6491 37.573 65.814 38.0236 65.7865C38.2277 65.7741 38.2785 66.4664 38.3776 66.2875C38.7904 65.5422 38.2118 60.5722 39.1255 60.5933C40.2955 60.6203 41.3171 62.621 41.9959 63.392C46.919 68.9835 51.2371 74.9709 56.6369 80.186C56.773 80.3173 58.3549 81.2941 57.7509 81.4183C57.3768 81.4952 56.4659 81.2539 56.1953 81.0029C56.0576 80.8752 56.0085 79.9392 56.0249 79.738C56.1798 77.8307 55.6679 75.9939 55.3144 74.1016C53.9419 66.7552 52.6437 59.384 51.2453 52.0412C50.222 46.6681 48.6402 41.4176 47.7184 36.0195C46.5364 29.0973 46.6872 22.1771 46.8972 15.192C46.9746 12.6167 47.096 10.0378 47.5103 7.49046C47.7927 5.75404 47.8907 9.64465 47.903 9.74961C48.955 18.6798 50.4997 27.5531 51.5786 36.481C52.4976 44.0856 52.169 52.2978 54.0182 59.7729C54.1142 60.1609 54.5937 61.7204 55.3357 61.3847C55.7409 61.2014 56.6844 60.3531 56.5173 60.7652C56.3181 61.2565 55.4697 61.3397 55.3027 61.9652C55.1805 62.4228 62.5579 64.1257 63.177 64.291C65.2005 64.8313 68.2149 65.0517 70.0397 66.1435C70.6011 66.4794 68.7384 66.3077 68.0841 66.3124C64.1088 66.3412 60.197 66.8831 56.2473 67.2577C54.1379 67.4577 52.0498 67.5447 49.933 67.4621C49.3271 67.4384 47.659 67.8243 48.1142 67.4236C48.7057 66.9028 50.2559 66.5353 50.8947 66.2961C56.2316 64.2978 61.6568 62.5496 66.9626 60.4647C80.6102 55.1017 66.1478 61.1834 79.4796 55.0875C82.9249 53.5122 86.4036 51.4952 90.0881 50.5219" stroke="black" stroke-width="0.854237" stroke-linecap="round"></path></svg>