<svg xmlns="http://www.w3.org/2000/svg" id="bd60868e-8684-4ce4-b5ce-aba10fe6aed0" data-name="Layer 1" width="46.8569" height="16" viewBox="0 0 46.8569 16"><path d="M23.4268,16A53.3006,53.3006,0,0,1,6.86,13.6572a16.6215,16.6215,0,0,1-5.021-2.5439A4.1276,4.1276,0,0,1-.0015,8,4.13,4.13,0,0,1,1.8394,4.8857,16.6242,16.6242,0,0,1,6.86,2.3433,53.2848,53.2848,0,0,1,23.4268,0,53.2834,53.2834,0,0,1,39.9932,2.3433a16.6222,16.6222,0,0,1,5.0214,2.5424A4.131,4.131,0,0,1,46.8555,8a4.1292,4.1292,0,0,1-1.8409,3.1133,16.6362,16.6362,0,0,1-5.02,2.5439A53.3093,53.3093,0,0,1,23.4268,16Zm0-15A52.2784,52.2784,0,0,0,7.1836,3.29,15.8881,15.8881,0,0,0,2.4673,5.6641,3.2167,3.2167,0,0,0,.9985,8a3.2167,3.2167,0,0,0,1.4688,2.3359A15.8842,15.8842,0,0,0,7.1836,12.71,52.2806,52.2806,0,0,0,23.4268,15a52.2916,52.2916,0,0,0,16.2441-2.29,15.8785,15.8785,0,0,0,4.7148-2.3741A3.2177,3.2177,0,0,0,45.8555,8a3.2153,3.2153,0,0,0-1.47-2.3359A15.8831,15.8831,0,0,0,39.6709,3.29,52.2894,52.2894,0,0,0,23.4268,1Z" transform="translate(0.0015)"></path></svg>