<svg xmlns="http://www.w3.org/2000/svg" id="b09f96b8-95f2-46c7-b6eb-0a31960c2604" data-name="Layer 1" width="21" height="21" viewBox="0 0 21 21"><g id="a6c9e526-2a14-44e3-84b4-70759adab071" data-name="Symbols"><g id="a0f02291-caf8-4cd9-8f32-95c28e336266" data-name="Footer"><g id="bf3eb705-a119-4e4d-86cf-9092e6ffde76" data-name="Footer"><g id="a39da886-239d-4849-9d4a-09442fcfe353" data-name="logo instagram"><path id="b2718a8a-f4b0-42e9-9f17-210b8db68b66" data-name="Combined-Shape" d="M15.9967,0A5.008,5.008,0,0,1,21,5.0033V15.9967A5.008,5.008,0,0,1,15.9967,21H5.0033A5.008,5.008,0,0,1,0,15.9967V5.0033A5.008,5.008,0,0,1,5.0033,0ZM10.5,5.04a5.46,5.46,0,1,0,5.46,5.46A5.46,5.46,0,0,0,10.5,5.04Zm0,1.68A3.78,3.78,0,1,1,6.72,10.5,3.78,3.78,0,0,1,10.5,6.72Zm6.09-3.78a1.47,1.47,0,1,0,1.47,1.47A1.47,1.47,0,0,0,16.59,2.94Z" style="fill-rule:evenodd"></path></g></g></g></g></svg>