<svg xmlns="http://www.w3.org/2000/svg" width="49" height="26" viewBox="0 0 49 26" fill="none"><g clip-path="url(#clip0)"><path d="M10.3523 2.74766C10.2607 2.10654 9.98594 1.55701 9.528 1.09907C8.97847 0.641122 8.42894 0.457944 7.69622 0.457944H7.23828V0H10.3523V2.74766ZM10.3523 22.6224L10.9018 25.3701H7.23828V24.9122H7.78781C8.52052 24.9122 9.07006 24.729 9.528 24.271C9.98594 23.8131 10.1691 23.2636 10.3523 22.6224ZM12.9168 0V25.3701H10.2607V0H12.9168ZM12.8252 2.74766V0H19.4196L15.9392 0.457944H15.3897C14.7486 0.457944 14.1074 0.641122 13.6495 1.09907C13.1916 1.55701 12.9168 2.10654 12.9168 2.74766H12.8252ZM24.2738 24.0879L24.1822 25.3701H12.8252V24.0879H24.2738ZM26.6551 19.3252L24.3654 25.3701H17.9542L19.4196 24.0879C20.7934 24.0879 21.9841 23.9047 22.8084 23.4467C23.6327 23.0804 24.3654 22.4393 24.9149 21.7981C25.4645 21.0654 25.9224 20.2411 26.2887 19.3252H26.6551Z" fill="#312A26"></path><path d="M25.0969 5.58692C24.7306 4.21308 24.0895 3.11402 23.1736 2.19813C22.7156 1.74019 22.3493 1.46542 21.7998 1.09907C21.1586 0.73271 20.5175 0.457944 19.6932 0.274766C19.0521 0.0915888 18.411 0 17.6783 0C16.9455 0 16.2128 0.0915888 15.4801 0.183178C14.6558 0.366355 13.9231 0.641122 13.0988 0.915888C13.0072 0.915888 13.0072 0.915888 12.9156 1.00748C12.1829 1.28224 11.5418 1.6486 10.8091 2.01495C10.8091 2.01495 10.7175 2.01495 10.7175 2.10654H10.6259C8.97732 3.02243 7.42031 4.30467 5.8633 5.86168C4.30629 7.41869 3.02405 9.06729 2.10816 10.6243C1.19228 12.2729 0.551154 13.8299 0.276387 15.3869C0.0016209 16.9439 0.0016209 18.4093 0.276387 19.6916C0.551154 20.9738 1.19228 22.1645 2.19975 23.0804C3.11564 23.9963 4.30629 24.6374 5.58854 25.0037C6.59601 25.2785 7.78667 25.3701 8.97732 25.1869C9.25209 25.1869 9.61844 25.0953 9.9848 25.0037C10.2596 24.9121 10.5343 24.9122 10.8091 24.8206H10.9007C11.6334 24.6374 12.2745 24.3626 13.0072 24.0879C13.0072 24.0879 13.0988 24.0879 13.0988 23.9963C13.1904 23.9047 13.3736 23.9047 13.4652 23.8131C13.8315 23.6299 14.2895 23.3551 14.7474 23.172C16.396 22.2561 17.953 20.9738 19.51 19.4168C21.067 17.8598 22.3493 16.2112 23.2652 14.6542C24.1811 13.0056 24.8222 11.4486 25.0969 9.89159C25.4633 8.33458 25.4633 6.96075 25.0969 5.58692ZM22.2577 12.3645C21.3418 14.2879 19.8764 16.1196 17.953 18.043C16.3044 19.6916 14.6558 20.9738 13.0072 21.8897C12.7325 21.9813 12.5493 22.1645 12.2745 22.2561C11.725 22.5308 11.267 22.714 10.7175 22.8972H10.6259C9.34368 23.3551 8.15302 23.6299 7.05396 23.6299C5.40536 23.6299 4.12312 23.0804 3.11564 22.0729C2.10816 21.0654 1.65022 19.7832 1.65022 18.1346C1.65022 16.486 2.10816 14.7458 3.02405 12.8224C4.03153 11.0822 5.49695 9.25047 7.32872 7.3271C8.42779 6.22804 9.61844 5.22056 10.7175 4.39626C11.4502 3.84673 12.2745 3.38879 13.0072 3.02243H13.0988C14.9306 2.10654 16.6708 1.6486 18.3194 1.6486C19.968 1.6486 21.2502 2.10654 22.2577 3.11402C23.2652 4.1215 23.8147 5.40374 23.8147 7.05234C23.7231 8.70093 23.2652 10.4411 22.2577 12.3645Z" fill="#312A26"></path><path d="M47.0795 24.5458C46.53 24.271 45.9804 23.9963 45.5225 23.5383C45.0645 23.172 44.6066 22.6224 44.0571 22.1645C43.6907 21.7981 43.2328 21.2486 42.7748 20.6075C42.3169 19.9664 41.7673 19.3252 41.3094 18.5925C40.8515 17.9514 40.2103 17.1271 39.5692 16.2112C39.2029 15.7533 38.8365 15.2037 38.287 14.7458C37.829 14.1963 37.3711 13.9215 36.9131 13.7383C38.1038 13.7383 39.1113 13.372 40.0272 12.7308C40.943 12.0897 41.6758 11.1738 42.2253 10.1664C42.7748 9.06729 43.0496 7.96823 43.0496 6.77757C43.0496 5.77009 42.8664 4.76262 42.5916 3.93832C42.2253 3.11402 41.7673 2.38131 41.2178 1.83178C40.5767 1.28224 39.844 0.824299 39.0197 0.457944C38.1954 0.0915888 37.0963 0 35.9973 0H17.6795C16.9468 0 16.2141 0.0915888 15.4814 0.183178C14.6571 0.366355 13.9244 0.641122 13.1001 0.915888C13.0085 0.915888 13.0085 0.915888 12.9169 1.00748C12.9169 1.09907 12.9169 1.19065 12.9169 1.19065H13.0085C13.9244 1.19065 14.7487 1.19065 15.3898 1.19065H21.7094C27.5711 1.19065 35.3561 1.19065 35.7225 1.28224C37.0963 1.37383 38.1954 1.83178 38.9281 2.83925C39.9356 3.66355 40.3019 5.03738 40.3935 6.68598C40.3935 7.05234 40.3935 7.41869 40.3935 7.87664C40.3019 8.24299 40.2103 8.51776 40.1187 8.79252C39.7524 9.89159 39.2944 10.7159 38.6533 11.1738C38.0122 11.7234 37.2795 12.0897 36.5468 12.1813C35.8141 12.3645 35.0814 12.4561 34.5318 12.4561C33.9823 12.4561 33.3412 12.4561 32.6085 12.4561V12.8224C33.2496 12.8224 33.8907 13.0972 34.4402 13.5551C34.9898 14.0131 35.5393 14.6542 35.9973 15.2037C36.0888 15.2953 36.1804 15.5701 36.5468 16.028C36.8216 16.486 37.2795 17.0355 37.6458 17.6766C38.1038 18.3178 38.4701 18.9589 38.9281 19.6C39.386 20.2411 39.7524 20.7907 40.1187 21.2486C40.4851 21.7065 40.6683 21.9813 40.7599 22.0729C41.1262 22.5308 41.5842 22.9888 42.1337 23.5383C42.6832 23.9963 43.4159 24.4542 44.1487 24.8206C44.973 25.1869 45.8888 25.3701 46.9879 25.3701H49.0029V25.0037C48.2701 24.9122 47.629 24.8206 47.0795 24.5458ZM12.9169 1.00748C12.1842 1.28224 11.543 1.6486 10.8103 2.01495C10.8103 2.01495 10.7188 2.01495 10.7188 2.10654V4.48785C11.4515 3.93832 12.2758 3.48037 13.0085 3.11402H13.1001V0.915888C13.0085 0.915888 13.0085 0.915888 12.9169 1.00748ZM10.7188 2.01495C10.7188 2.19813 10.7188 2.38131 10.7188 2.65608H10.8103V1.92336C10.8103 2.01495 10.8103 2.01495 10.7188 2.01495Z" fill="#312A26"></path></g><defs><clipPath id="clip0"><rect width="49" height="25.3701" fill="white"></rect></clipPath></defs></svg>